<svg xmlns="http://www.w3.org/2000/svg" width="376.118" height="341.189" viewBox="0 0 376.118 341.189">
  <g id="Group_6661" data-name="Group 6661" transform="translate(-569.614 -37.38)">
    <path id="Path_5490" data-name="Path 5490" d="M664.294,364.816c19.73,20.83,68.17,13.2,89.151,0,68.1-42.851,187.476-114.176,192.879-217.508,2.3-43.921-36.431-66.984-52.614-73.75C854.85,57.31,812.216,52.432,770.137,50.551c-43.951-1.966-91.1-.435-130.681,21.009-14.993,8.123-29.138,18.539-38.821,32.759a103.235,103.235,0,0,0-17,49.011c-2.42,28.008,5.115,56.09,16.508,81.791s26.59,49.5,40.537,73.9C649.783,324.948,647.671,347.267,664.294,364.816Z" transform="translate(-2.143 -1.971)" fill="#00296d"/>
    <path id="Path_5491" data-name="Path 5491" d="M664.294,364.816c19.73,20.83,68.17,13.2,89.151,0,68.1-42.851,187.476-114.176,192.879-217.508,2.3-43.921-36.431-66.984-52.614-73.75C854.85,57.31,812.216,52.432,770.137,50.551c-43.951-1.966-91.1-.435-130.681,21.009-14.993,8.123-29.138,18.539-38.821,32.759a103.235,103.235,0,0,0-17,49.011c-2.42,28.008,5.115,56.09,16.508,81.791s26.59,49.5,40.537,73.9C649.783,324.948,647.671,347.267,664.294,364.816Z" transform="translate(-2.143 -1.971)" fill="#fff" opacity="0.7"/>
    <g id="Group_6637" data-name="Group 6637" transform="translate(570.117 37.902)">
      <g id="Group_6615" data-name="Group 6615" transform="translate(47.748 71.746)">
        <rect id="Rectangle_23540" data-name="Rectangle 23540" width="47.626" height="30.456" rx="3.51" transform="translate(8.832 0) rotate(16.858)" fill="none" stroke="#263238" stroke-miterlimit="10" stroke-width="1"/>
        <line id="Line_427" data-name="Line 427" x2="45.579" y2="13.812" transform="translate(6.775 6.789)" fill="none" stroke="#263238" stroke-miterlimit="10" stroke-width="1"/>
        <line id="Line_428" data-name="Line 428" x2="45.579" y2="13.812" transform="translate(5.388 11.367)" fill="none" stroke="#263238" stroke-miterlimit="10" stroke-width="1"/>
        <path id="Path_5492" data-name="Path 5492" d="M670.816,163.42a2.96,2.96,0,0,0,.257,2.322,2.967,2.967,0,1,1,1.247-4.112A2.958,2.958,0,0,0,670.816,163.42Z" transform="translate(-633.712 -129.689)" fill="none" stroke="#263238" stroke-miterlimit="10" stroke-width="1"/>
        <path id="Path_5493" data-name="Path 5493" d="M677.261,165.369a2.965,2.965,0,1,1-1.978-3.7A2.966,2.966,0,0,1,677.261,165.369Z" transform="translate(-634.481 -129.921)" fill="none" stroke="#263238" stroke-miterlimit="10" stroke-width="1"/>
      </g>
      <g id="Group_6616" data-name="Group 6616" transform="translate(328.716 131.105)">
        <rect id="Rectangle_23541" data-name="Rectangle 23541" width="40.505" height="25.902" rx="3.51" transform="translate(7.512 0) rotate(16.858)" fill="none" stroke="#263238" stroke-miterlimit="10" stroke-width="1"/>
        <line id="Line_429" data-name="Line 429" x2="38.764" y2="11.746" transform="translate(5.762 5.774)" fill="none" stroke="#263238" stroke-miterlimit="10" stroke-width="1"/>
        <line id="Line_430" data-name="Line 430" x2="38.764" y2="11.746" transform="translate(4.582 9.667)" fill="none" stroke="#263238" stroke-miterlimit="10" stroke-width="1"/>
        <path id="Path_5494" data-name="Path 5494" d="M1000.373,228.484a2.514,2.514,0,0,0,.218,1.976,2.524,2.524,0,1,1,1.06-3.5A2.514,2.514,0,0,0,1000.373,228.484Z" transform="translate(-968.817 -199.797)" fill="none" stroke="#263238" stroke-miterlimit="10" stroke-width="1"/>
        <path id="Path_5495" data-name="Path 5495" d="M1005.853,230.142a2.522,2.522,0,1,1-1.682-3.144A2.522,2.522,0,0,1,1005.853,230.142Z" transform="translate(-969.471 -199.995)" fill="none" stroke="#263238" stroke-miterlimit="10" stroke-width="1"/>
      </g>
      <g id="Group_6618" data-name="Group 6618" transform="translate(270.734 50.419)">
        <rect id="Rectangle_23542" data-name="Rectangle 23542" width="53.226" height="27.686" transform="translate(0 22.159) rotate(-24.602)" fill="none" stroke="#263238" stroke-miterlimit="10" stroke-width="1"/>
        <path id="Path_5496" data-name="Path 5496" d="M950.525,120.546,943.2,104.553a2.838,2.838,0,0,1-3.761-1.4l-39.115,17.91a2.839,2.839,0,0,1-1.4,3.762l7.324,15.993a2.839,2.839,0,0,1,3.762,1.4l39.115-17.91A2.838,2.838,0,0,1,950.525,120.546Z" transform="translate(-894.766 -99.02)" fill="none" stroke="#263238" stroke-miterlimit="10" stroke-width="1"/>
        <circle id="Ellipse_887" data-name="Ellipse 887" cx="7.276" cy="7.276" r="7.276" transform="matrix(0.793, -0.609, 0.609, 0.793, 19.757, 22.328)" fill="none" stroke="#263238" stroke-miterlimit="10" stroke-width="1"/>
        <g id="Group_6617" data-name="Group 6617" transform="translate(26.477 18.673)">
          <path id="Path_5497" data-name="Path 5497" d="M931.078,129.071l.543,1.189-.516.237-.54-1.178a4.266,4.266,0,0,1-2.9.191l.03-.727a3.874,3.874,0,0,0,2.568-.125l-1.245-2.718c-1.265.242-2.582.42-3.208-.945-.454-.992-.133-2.176,1.391-3.024l-.544-1.189.517-.237.539,1.178a4.46,4.46,0,0,1,2.392-.319l.02.728a4.213,4.213,0,0,0-2.113.242l1.254,2.739c1.3-.256,2.677-.488,3.311.9C933.035,127.013,932.678,128.226,931.078,129.071Zm-2.391-3.856-1.183-2.583c-1.022.58-1.246,1.346-.949,2C926.915,125.414,927.739,125.386,928.687,125.215Zm3.154,1.181c-.374-.816-1.256-.75-2.244-.56l1.183,2.584C931.878,127.817,932.143,127.059,931.84,126.4Z" transform="translate(-925.62 -120.545)" fill="#263238"/>
        </g>
      </g>
      <g id="Group_6620" data-name="Group 6620" transform="translate(13.968 164.649)">
        <rect id="Rectangle_23543" data-name="Rectangle 23543" width="37.21" height="19.355" transform="matrix(0.996, -0.086, 0.086, 0.996, 0, 3.205)" fill="none" stroke="#263238" stroke-miterlimit="10" stroke-width="1"/>
        <path id="Path_5498" data-name="Path 5498" d="M624.05,251.109l-1.059-12.251a1.984,1.984,0,0,1-2.147-1.806l-29.963,2.59a1.985,1.985,0,0,1-1.806,2.148l1.059,12.252a1.984,1.984,0,0,1,2.147,1.806l29.963-2.591A1.986,1.986,0,0,1,624.05,251.109Z" transform="translate(-587.193 -235.206)" fill="none" stroke="#263238" stroke-miterlimit="10" stroke-width="1"/>
        <path id="Path_5499" data-name="Path 5499" d="M614.062,246.857a5.086,5.086,0,1,1-5.506-4.63A5.087,5.087,0,0,1,614.062,246.857Z" transform="translate(-589.625 -236.051)" fill="none" stroke="#263238" stroke-miterlimit="10" stroke-width="1"/>
        <g id="Group_6619" data-name="Group 6619" transform="translate(17.323 7.504)">
          <path id="Path_5500" data-name="Path 5500" d="M610.06,250.35l.079.91-.4.034-.078-.9a2.98,2.98,0,0,1-1.956-.557l.191-.471a2.706,2.706,0,0,0,1.72.521l-.18-2.082c-.89-.139-1.8-.331-1.89-1.376-.065-.76.425-1.464,1.627-1.664l-.079-.91.4-.034.078.9a3.117,3.117,0,0,1,1.649.352l-.157.484a2.948,2.948,0,0,0-1.449-.337l.181,2.1c.913.137,1.877.308,1.969,1.369C611.833,249.456,611.312,250.17,610.06,250.35Zm-.666-3.1-.171-1.979c-.809.141-1.138.593-1.094,1.092C608.18,246.963,608.73,247.139,609.393,247.249Zm1.8,1.52c-.054-.625-.65-.789-1.345-.9l.171,1.98C610.882,249.713,611.234,249.276,611.191,248.769Z" transform="translate(-607.545 -243.819)" fill="#263238"/>
        </g>
      </g>
      <g id="Group_6622" data-name="Group 6622" transform="translate(345.839 47.161)">
        <circle id="Ellipse_888" data-name="Ellipse 888" cx="7.276" cy="7.276" r="7.276" fill="none" stroke="#263238" stroke-miterlimit="10" stroke-width="1"/>
        <g id="Group_6621" data-name="Group 6621" transform="translate(4.315 1.934)">
          <path id="Path_5501" data-name="Path 5501" d="M992.232,106v1.308h-.569v-1.3a4.267,4.267,0,0,1-2.717-1.034l.33-.648a3.872,3.872,0,0,0,2.387.955V102.3c-1.251-.307-2.523-.693-2.523-2.194,0-1.091.784-2.034,2.523-2.17V96.626h.569v1.3a4.465,4.465,0,0,1,2.307.7l-.284.671a4.224,4.224,0,0,0-2.023-.66v3.012c1.284.308,2.637.671,2.637,2.194C994.868,104.946,994.038,105.9,992.232,106Zm-.569-4.5V98.661c-1.17.1-1.694.7-1.694,1.42C989.969,100.946,990.731,101.263,991.663,101.5Zm2.375,2.387c0-.9-.829-1.2-1.807-1.444v2.842C993.482,105.2,994.038,104.617,994.038,103.889Z" transform="translate(-988.946 -96.626)" fill="#263238"/>
        </g>
      </g>
      <g id="Group_6624" data-name="Group 6624" transform="translate(294.796 135.9)">
        <circle id="Ellipse_889" data-name="Ellipse 889" cx="7.276" cy="7.276" r="7.276" transform="translate(0 3.338) rotate(-13.261)" fill="none" stroke="#263238" stroke-miterlimit="10" stroke-width="1"/>
        <g id="Group_6623" data-name="Group 6623" transform="translate(4.651 4.072)">
          <path id="Path_5502" data-name="Path 5502" d="M930.558,213.614l-.685,1.114-.484-.3.679-1.1a4.265,4.265,0,0,1-1.773-2.3l.62-.38a3.873,3.873,0,0,0,1.533,2.063l1.566-2.547c-.9-.916-1.787-1.912-1-3.19.572-.93,1.734-1.323,3.287-.528l.684-1.114.484.3-.678,1.1a4.457,4.457,0,0,1,1.6,1.808l-.593.422a4.228,4.228,0,0,0-1.379-1.621l-1.577,2.567c.933.934,1.9,1.952,1.1,3.25C933.358,214.094,932.151,214.473,930.558,213.614Zm1.873-4.132,1.488-2.42c-1.051-.526-1.812-.287-2.187.324C931.28,208.12,931.762,208.79,932.431,209.481Zm.773,3.277c.471-.765-.075-1.461-.783-2.175L930.934,213C932.045,213.58,932.824,213.378,933.2,212.758Z" transform="translate(-928.295 -205.327)" fill="#263238"/>
        </g>
      </g>
      <g id="Group_6626" data-name="Group 6626" transform="translate(185.266)">
        <path id="Path_5503" data-name="Path 5503" d="M805.615,42.156a7.276,7.276,0,1,1-9.642-3.594A7.277,7.277,0,0,1,805.615,42.156Z" transform="translate(-791.719 -37.902)" fill="none" stroke="#263238" stroke-miterlimit="10" stroke-width="1"/>
        <g id="Group_6625" data-name="Group 6625" transform="translate(3.797 2.284)">
          <path id="Path_5504" data-name="Path 5504" d="M801.714,49.163l.543,1.189-.517.237L801.2,49.41a4.264,4.264,0,0,1-2.9.188l.031-.726a3.878,3.878,0,0,0,2.568-.124l-1.242-2.72c-1.266.241-2.583.419-3.207-.946-.454-.992-.132-2.176,1.393-3.023l-.543-1.189.517-.237.538,1.179a4.467,4.467,0,0,1,2.392-.318l.02.728a4.218,4.218,0,0,0-2.114.241L799.9,45.2c1.3-.254,2.677-.486,3.31.9C803.672,47.107,803.315,48.32,801.714,49.163Zm-2.388-3.857-1.18-2.585c-1.022.58-1.248,1.345-.951,2C797.553,45.5,798.379,45.476,799.326,45.306Zm3.153,1.184c-.374-.817-1.256-.751-2.244-.562l1.181,2.584C802.515,47.91,802.78,47.151,802.478,46.49Z" transform="translate(-796.26 -40.634)" fill="#263238"/>
        </g>
      </g>
      <g id="Group_6628" data-name="Group 6628" transform="translate(153.796 292.435)">
        <path id="Path_5505" data-name="Path 5505" d="M774.943,394.08a10.926,10.926,0,1,1-14.478-5.4A10.925,10.925,0,0,1,774.943,394.08Z" transform="translate(-754.077 -387.692)" fill="none" stroke="#263238" stroke-miterlimit="10" stroke-width="1"/>
        <g id="Group_6627" data-name="Group 6627" transform="translate(5.701 3.431)">
          <path id="Path_5506" data-name="Path 5506" d="M769.085,404.6l.815,1.786-.776.354-.808-1.77a6.4,6.4,0,0,1-4.357.283l.046-1.09a5.821,5.821,0,0,0,3.857-.186L766,399.9c-1.9.361-3.879.628-4.816-1.421-.681-1.491-.2-3.269,2.092-4.54l-.815-1.785.776-.354.808,1.769a6.7,6.7,0,0,1,3.592-.477l.03,1.093a6.331,6.331,0,0,0-3.174.362l1.879,4.114c1.945-.382,4.021-.729,4.971,1.351C772.027,401.513,771.488,403.336,769.085,404.6Zm-3.585-5.793-1.774-3.881c-1.535.87-1.874,2.019-1.427,3C762.838,399.106,764.077,399.065,765.5,398.809Zm4.733,1.778c-.56-1.226-1.884-1.128-3.368-.844l1.773,3.881C770.288,402.72,770.687,401.581,770.233,400.588Z" transform="translate(-760.896 -391.795)" fill="#263238"/>
        </g>
      </g>
      <g id="Group_6630" data-name="Group 6630" transform="translate(0 109.888)">
        <path id="Path_5507" data-name="Path 5507" d="M588.256,188.477a10.927,10.927,0,1,1,1-15.421A10.927,10.927,0,0,1,588.256,188.477Z" transform="translate(-570.117 -169.342)" fill="none" stroke="#263238" stroke-miterlimit="10" stroke-width="1"/>
        <g id="Group_6629" data-name="Group 6629" transform="translate(4.585 5.2)">
          <path id="Path_5508" data-name="Path 5508" d="M577.712,185.653l-1.475,1.3-.563-.641,1.461-1.284a6.4,6.4,0,0,1-1.526-4.091l1.058-.27a5.816,5.816,0,0,0,1.289,3.64l3.372-2.963c-.893-1.716-1.719-3.534-.026-5.021,1.231-1.082,3.072-1.132,4.95.695l1.475-1.3.563.641-1.461,1.284a6.7,6.7,0,0,1,1.491,3.3l-1.038.344a6.338,6.338,0,0,0-1.262-2.936l-3.4,2.985c.926,1.753,1.857,3.64.139,5.15C581.518,187.581,579.618,187.59,577.712,185.653Zm4.515-5.1,3.205-2.817c-1.276-1.22-2.474-1.213-3.282-.5C581.176,178.088,581.572,179.262,582.227,180.551Zm-.339,5.045c1.012-.89.537-2.13-.162-3.469l-3.206,2.816C579.861,186.263,581.067,186.317,581.888,185.6Z" transform="translate(-575.601 -175.562)" fill="#263238"/>
        </g>
      </g>
      <g id="Group_6632" data-name="Group 6632" transform="translate(56.91 215.477)">
        <circle id="Ellipse_890" data-name="Ellipse 890" cx="5.276" cy="5.276" r="5.276" transform="matrix(0.036, -0.999, 0.999, 0.036, 0, 10.546)" fill="none" stroke="#263238" stroke-miterlimit="10" stroke-width="1"/>
        <g id="Group_6631" data-name="Group 6631" transform="translate(2.712 2.334)">
          <path id="Path_5509" data-name="Path 5509" d="M646.234,303.656l.606.728-.316.263-.6-.722a3.09,3.09,0,0,1-1.993.685l-.117-.514a2.81,2.81,0,0,0,1.773-.576l-1.388-1.665c-.839.41-1.728.785-2.424-.051-.506-.608-.507-1.5.4-2.381l-.607-.728.317-.263.6.721a3.235,3.235,0,0,1,1.613-.678l.153.5a3.056,3.056,0,0,0-1.433.572l1.4,1.679c.858-.426,1.781-.851,2.487,0C647.213,301.843,647.193,302.76,646.234,303.656Zm-2.406-2.244-1.318-1.583c-.605.6-.617,1.179-.284,1.578C642.626,301.888,643.2,301.712,643.828,301.412Zm2.431.227c-.416-.5-1.021-.287-1.676.034l1.318,1.583C646.556,302.626,646.6,302.044,646.259,301.64Z" transform="translate(-641.433 -298.432)" fill="#263238"/>
        </g>
      </g>
      <g id="Group_6634" data-name="Group 6634" transform="translate(221.101 324.378)">
        <path id="Path_5510" data-name="Path 5510" d="M843.912,427.8a5.276,5.276,0,1,1-7.431-.676A5.276,5.276,0,0,1,843.912,427.8Z" transform="translate(-834.583 -425.9)" fill="none" stroke="#263238" stroke-miterlimit="10" stroke-width="1"/>
        <g id="Group_6633" data-name="Group 6633" transform="translate(2.528 2.15)">
          <path id="Path_5511" data-name="Path 5511" d="M842.408,433.7l.606.728-.316.263-.6-.722a3.092,3.092,0,0,1-1.994.685l-.116-.514a2.811,2.811,0,0,0,1.773-.576l-1.388-1.665c-.839.41-1.728.785-2.424-.051-.507-.608-.507-1.5.4-2.381l-.607-.728.317-.263.6.722a3.237,3.237,0,0,1,1.613-.678l.153.5a3.057,3.057,0,0,0-1.433.572l1.4,1.679c.858-.426,1.781-.85,2.487,0C843.386,431.883,843.367,432.8,842.408,433.7ZM840,431.452l-1.318-1.583c-.605.6-.617,1.179-.284,1.578C838.8,431.928,839.372,431.752,840,431.452Zm2.431.227c-.416-.5-1.022-.287-1.676.034l1.318,1.583C842.73,432.666,842.771,432.085,842.433,431.68Z" transform="translate(-837.606 -428.472)" fill="#263238"/>
        </g>
      </g>
      <g id="Group_6636" data-name="Group 6636" transform="translate(75.066 19.52)">
        <circle id="Ellipse_891" data-name="Ellipse 891" cx="5.276" cy="5.276" r="5.276" transform="matrix(0.091, -0.996, 0.996, 0.091, 0, 10.508)" fill="none" stroke="#263238" stroke-miterlimit="10" stroke-width="1"/>
        <g id="Group_6635" data-name="Group 6635" transform="translate(2.988 2.61)">
          <path id="Path_5512" data-name="Path 5512" d="M668.281,69.6l.607.729-.317.263-.6-.721a3.1,3.1,0,0,1-1.994.685l-.117-.514a2.81,2.81,0,0,0,1.773-.576L666.245,67.8c-.839.41-1.727.785-2.424-.051-.507-.608-.507-1.5.4-2.381l-.606-.728.316-.263.6.721a3.234,3.234,0,0,1,1.613-.678l.152.5a3.06,3.06,0,0,0-1.433.572l1.4,1.679c.859-.426,1.781-.851,2.488,0C669.26,67.783,669.241,68.7,668.281,69.6Zm-2.405-2.243-1.319-1.583c-.6.6-.617,1.179-.284,1.578C664.674,67.828,665.246,67.652,665.876,67.352Zm2.431.227c-.417-.5-1.022-.287-1.677.034l1.319,1.583C668.6,68.566,668.644,67.984,668.307,67.58Z" transform="translate(-663.48 -64.372)" fill="#263238"/>
        </g>
      </g>
    </g>
    <path id="Path_5513" data-name="Path 5513" d="M777.115,316.985s-6.442,32.721-45.978,40.1c0,0-10.325,8.235-13.762,13.112s-21.767,13.161-40.384,39.006-46.4-56.237-46.4-56.237l61.346-79.678Z" transform="translate(-9.916 -38.596)" fill="rgba(0,0,0,0.7)" opacity="0.2"/>
    <path id="Path_5514" data-name="Path 5514" d="M841.426,140.093s21.32-10.42,26.011-8.621,9.167,12.579-8.742,22.906-12.579,29.563-12.579,29.563h12.792s7.676,3.127,10.66,7.142,5.117,17.736,6.822,22.389.853,9.3-3.837,10.814c0,0-2.985,13.01-2.132,18.775s.426,9.484-5.117,10.182a9.668,9.668,0,0,1-10.66-10.182l-4.264,15.449,2.985,5.938a38.66,38.66,0,0,1,11.513,6.976c5.969,5.117,11.938,6.514,10.233,12.211s-5.117,11.847-23.025,4.722-32.833-35.114-32.833-35.114l-10.758-97.6Z" transform="translate(-39.087 -15.308)" fill="#fff"/>
    <path id="Path_5515" data-name="Path 5515" d="M863.866,196.337c-9.667,13.178,1.026,28.346,1.026,28.346s-6.687,3.731-6.877,13.246c-.076,3.951.92,9.484,2.105,14.6a9.593,9.593,0,0,1-5.472-9.294l-4.271,15.45,2.987,5.935a36.413,36.413,0,0,1,8.793,4.834c-2.653,6.087-3.458,13.611-3.222,21.369a56.594,56.594,0,0,1-6.847-2.287c-17.912-7.128-32.83-35.117-32.83-35.117l-10.761-97.6,32.928-15.548s11.65-5.693,19.622-7.941a64.816,64.816,0,0,0,1.892,19.477,45.3,45.3,0,0,1-4.24,2.751c-17.912,10.32-12.585,29.562-12.585,29.562h12.8s7.3,2.971,10.419,6.847A20.808,20.808,0,0,0,863.866,196.337Z" transform="translate(-39.087 -15.483)" fill="#00296d" opacity="0.5"/>
    <path id="Path_5516" data-name="Path 5516" d="M772.659,282.376s-23.194,45.475-65,55.787c0,0-1.6,9-8.67,12.859-3.777,2.059-19.021,24.91-32.412,45.763l-74.095-45.452c4.567-4.514,9.766-9.712,15.085-15.138,15.465-15.768,31.963-33.483,37.017-42.184,4.514-7.774,10.221-21.271,15.2-33.955,6.368-16.217,11.551-31.12,11.551-31.12l24.714-27.472,38.856-43.2,1.68,5.525Z" transform="translate(-3.667 -19.737)" fill="#fff"/>
    <path id="Path_5517" data-name="Path 5517" d="M750.254,158.269l37.754,124.107s-23.194,45.475-65,55.787c0,0-1.6,9-8.67,12.859-3.389,1.847-16.02,20.45-28.248,39.319C690.621,374.793,703.745,350,703.745,350c-8.42-9.97-5.965-20.481-2.6-17.486,3.26,2.91,11.84,11.4,12.379,11.931-3.724-4.385-4.582-11.247-4.582-11.247s10.434,6.938,11.277-4.21-6.254-38.286-6.254-38.286l-18.6-71.42Z" transform="translate(-19.016 -19.737)" fill="#00296d" opacity="0.5"/>
    <path id="Path_5518" data-name="Path 5518" d="M808.5,155.645l32.93-15.552s21.32-10.42,26.011-8.621,9.167,12.579-8.742,22.906-12.579,29.563-12.579,29.563h12.792s7.676,3.127,10.66,7.142,5.117,17.736,6.822,22.389.853,9.3-3.837,10.814c0,0-2.985,13.01-2.132,18.775s.426,9.484-5.117,10.182a9.668,9.668,0,0,1-10.66-10.182l-4.264,15.449,2.985,5.938a38.66,38.66,0,0,1,11.513,6.976c5.969,5.117,11.938,6.514,10.233,12.211s-5.117,11.847-23.025,4.722-32.833-35.114-32.833-35.114" transform="translate(-39.087 -15.308)" fill="none" stroke="#263238" stroke-linecap="round" stroke-linejoin="round" stroke-width="1"/>
    <path id="Path_5519" data-name="Path 5519" d="M881.709,235.593c-6.4,1.726-13.858.447-16.629-10.852s2.773-23.37,6.4-24.518" transform="translate(-48.242 -26.616)" fill="none" stroke="#263238" stroke-linecap="round" stroke-linejoin="round" stroke-width="1"/>
    <path id="Path_5520" data-name="Path 5520" d="M863.694,261.428s-.426-14.553,4.9-18.145" transform="translate(-48.137 -33.676)" fill="none" stroke="#263238" stroke-linecap="round" stroke-linejoin="round" stroke-width="1"/>
    <path id="Path_5521" data-name="Path 5521" d="M666.656,339.744s-15.625-1.945-19.112-8.937c-2.888-5.783-18.52,15.853-37.017,25.352,15.465-15.768,31.963-33.483,37.017-42.184,4.514-7.774,10.221-21.271,15.2-33.955v.015c-.251,10.518-5.86,26.621-4.256,35a6.742,6.742,0,0,0-4.81,8.147C654.878,329.835,666.656,339.744,666.656,339.744Z" transform="translate(-6.626 -39.7)" fill="#00296d" opacity="0.5"/>
    <g id="Group_6638" data-name="Group 6638" transform="translate(588.816 138.535)">
      <path id="Path_5522" data-name="Path 5522" d="M787.189,306.716s-23.19,45.477-65,55.79c0,0-1.593,9-8.666,12.856-3.776,2.06-19.02,24.909-32.415,45.767" transform="translate(-607.015 -182.612)" fill="none" stroke="#263238" stroke-linecap="round" stroke-linejoin="round" stroke-width="1"/>
      <path id="Path_5523" data-name="Path 5523" d="M592.483,351.336c17.854-17.649,45.305-45.632,52.1-57.327,10.287-17.7,26.754-65.076,26.754-65.076l63.57-70.662" transform="translate(-592.483 -158.272)" fill="none" stroke="#263238" stroke-linecap="round" stroke-linejoin="round" stroke-width="1"/>
      <path id="Path_5524" data-name="Path 5524" d="M719.436,222.817s9.762,8.747,12.506,16.7" transform="translate(-613.299 -168.855)" fill="none" stroke="#263238" stroke-linecap="round" stroke-linejoin="round" stroke-width="1"/>
    </g>
    <rect id="Rectangle_23544" data-name="Rectangle 23544" width="116.319" height="234.917" rx="6.728" transform="translate(699.52 65.127)" fill="#263238"/>
    <path id="Path_5525" data-name="Path 5525" d="M806.941,77.832l-2.221,4.078a2.78,2.78,0,0,1-2.441,1.451h-36.8a2.78,2.78,0,0,1-2.441-1.451l-2.221-4.078a2.78,2.78,0,0,0-2.441-1.451H732.69a2.78,2.78,0,0,0-2.78,2.78V299.084a2.78,2.78,0,0,0,2.78,2.78H835.071a2.779,2.779,0,0,0,2.779-2.78V79.161a2.779,2.779,0,0,0-2.779-2.78H809.382A2.779,2.779,0,0,0,806.941,77.832Z" transform="translate(-26.201 -6.309)" fill="#eef5ff" stroke="#263238" stroke-linecap="round" stroke-linejoin="round" stroke-width="1"/>
    <g id="Group_6640" data-name="Group 6640" transform="translate(748.205 70.498)">
      <g id="Group_6639" data-name="Group 6639">
        <circle id="Ellipse_892" data-name="Ellipse 892" cx="1.5" cy="1.5" r="1.5" fill="none" stroke="#fff" stroke-miterlimit="10" stroke-width="1"/>
        <path id="Path_5526" data-name="Path 5526" d="M805.433,78.5a.93.93,0,1,1-.93-.93A.93.93,0,0,1,805.433,78.5Z" transform="translate(-786.484 -77.003)" fill="none" stroke="#fff" stroke-miterlimit="10" stroke-width="1"/>
      </g>
      <path id="Path_5527" data-name="Path 5527" d="M798.913,77.989h-9.089a.583.583,0,0,0-.583.583h0a.583.583,0,0,0,.583.583h9.089a.583.583,0,0,0,.583-.583h0A.583.583,0,0,0,798.913,77.989Z" transform="translate(-784.134 -77.071)" fill="#fff"/>
    </g>
    <g id="Group_6643" data-name="Group 6643" transform="translate(712.941 73.761)">
      <g id="Group_6641" data-name="Group 6641" transform="translate(0 1.903)">
        <rect id="Rectangle_23545" data-name="Rectangle 23545" width="9.803" height="4.167" fill="none" stroke="#263238" stroke-linecap="round" stroke-linejoin="round" stroke-width="1"/>
        <rect id="Rectangle_23546" data-name="Rectangle 23546" width="1.521" height="2.764" transform="translate(9.803 0.701)" fill="none" stroke="#263238" stroke-linecap="round" stroke-linejoin="round" stroke-width="1"/>
      </g>
      <g id="Group_6642" data-name="Group 6642" transform="translate(77.557)">
        <rect id="Rectangle_23547" data-name="Rectangle 23547" width="1.74" height="1.511" transform="translate(0 4.56)" fill="none" stroke="#263238" stroke-linecap="round" stroke-linejoin="round" stroke-width="1"/>
        <rect id="Rectangle_23548" data-name="Rectangle 23548" width="1.74" height="3.031" transform="translate(3.393 3.04)" fill="none" stroke="#263238" stroke-linecap="round" stroke-linejoin="round" stroke-width="1"/>
        <rect id="Rectangle_23549" data-name="Rectangle 23549" width="1.74" height="4.551" transform="translate(6.786 1.52)" fill="none" stroke="#263238" stroke-linecap="round" stroke-linejoin="round" stroke-width="1"/>
        <rect id="Rectangle_23550" data-name="Rectangle 23550" width="1.74" height="6.071" transform="translate(10.179)" fill="none" stroke="#263238" stroke-linecap="round" stroke-linejoin="round" stroke-width="1"/>
      </g>
    </g>
    <rect id="Rectangle_23551" data-name="Rectangle 23551" width="106.543" height="101.616" transform="translate(704.407 118.672)" fill="#282828" opacity="0.5"/>
    <g id="Group_6644" data-name="Group 6644" transform="translate(727.498 98.921)">
      <path id="Path_5528" data-name="Path 5528" d="M764.7,114.437v1.769c0,2.177-1.05,3.363-3.189,3.363H760.5v5.113h-2.139v-13.61h3.149C763.653,111.073,764.7,112.259,764.7,114.437Zm-4.2-1.42v4.607h1.011c.68,0,1.05-.311,1.05-1.283V114.3c0-.972-.37-1.283-1.05-1.283Z" transform="translate(-758.365 -110.918)" fill="#263238"/>
      <path id="Path_5529" data-name="Path 5529" d="M773.643,124.683h-2.158l-.37-2.47h-2.624l-.37,2.47h-1.964l2.177-13.61h3.13Zm-4.88-4.316h2.061l-1.011-6.882h-.039Z" transform="translate(-759.643 -110.918)" fill="#263238"/>
      <path id="Path_5530" data-name="Path 5530" d="M777.024,120.172l-2.7-9.1h2.235l1.614,6.2h.038l1.614-6.2h2.042l-2.7,9.1v4.511h-2.139Z" transform="translate(-760.982 -110.918)" fill="#263238"/>
      <path id="Path_5531" data-name="Path 5531" d="M788.877,120.736h.039l1.439-9.663h2.975v13.61h-2.022v-9.76h-.038l-1.439,9.76h-2.022l-1.556-9.624h-.039v9.624h-1.866v-13.61h2.975Z" transform="translate(-762.625 -110.918)" fill="#263238"/>
      <path id="Path_5532" data-name="Path 5532" d="M799.093,116.809h2.936v1.944h-2.936v3.985h3.694v1.945h-5.833v-13.61h5.833v1.945h-3.694Z" transform="translate(-764.692 -110.918)" fill="#263238"/>
      <path id="Path_5533" data-name="Path 5533" d="M807.454,114.825h-.038v9.858h-1.924v-13.61h2.683l2.159,8.146h.038v-8.146h1.906v13.61h-2.2Z" transform="translate(-766.092 -110.918)" fill="#263238"/>
      <path id="Path_5534" data-name="Path 5534" d="M814.7,111.073h6.611v1.945h-2.236v11.665h-2.139V113.018H814.7Z" transform="translate(-767.602 -110.918)" fill="#263238"/>
      <path id="Path_5535" data-name="Path 5535" d="M826.539,110.888c2.081,0,3.149,1.244,3.149,3.421v.428h-2.021v-.564c0-.971-.389-1.341-1.069-1.341s-1.069.37-1.069,1.341c0,.992.427,1.731,1.828,2.955,1.788,1.575,2.352,2.7,2.352,4.258,0,2.177-1.088,3.422-3.188,3.422s-3.189-1.245-3.189-3.422v-.836h2.022v.971c0,.972.428,1.323,1.109,1.323s1.109-.35,1.109-1.323c0-.991-.428-1.73-1.828-2.955-1.788-1.575-2.352-2.7-2.352-4.258C823.39,112.132,824.459,110.888,826.539,110.888Z" transform="translate(-769.018 -110.888)" fill="#263238"/>
    </g>
    <g id="Group_6655" data-name="Group 6655" transform="translate(712.941 124.821)">
      <rect id="Rectangle_23552" data-name="Rectangle 23552" width="89.476" height="13.371" transform="translate(0 6.16)" fill="#fff" stroke="#263238" stroke-linecap="round" stroke-linejoin="round" stroke-width="1"/>
      <rect id="Rectangle_23553" data-name="Rectangle 23553" width="89.476" height="13.371" transform="translate(0 31.238)" fill="#fff" stroke="#263238" stroke-linecap="round" stroke-linejoin="round" stroke-width="1"/>
      <rect id="Rectangle_23554" data-name="Rectangle 23554" width="89.476" height="13.371" transform="translate(0 54.037)" fill="#fff" stroke="#263238" stroke-linecap="round" stroke-linejoin="round" stroke-width="1"/>
      <rect id="Rectangle_23555" data-name="Rectangle 23555" width="42.359" height="15.651" transform="translate(0 72.276)" fill="#fff" stroke="#263238" stroke-linecap="round" stroke-linejoin="round" stroke-width="1"/>
      <rect id="Rectangle_23556" data-name="Rectangle 23556" width="42.359" height="15.651" transform="translate(47.117 72.276)" fill="#fff" stroke="#263238" stroke-linecap="round" stroke-linejoin="round" stroke-width="1"/>
      <g id="Group_6645" data-name="Group 6645" transform="translate(2.78)">
        <path id="Path_5536" data-name="Path 5536" d="M747.075,145.746v.362h-2.8v-3.956h2.713v.361H744.7v1.408h2.045v.356H744.7v1.469Z" transform="translate(-744.278 -141.915)" fill="#263238"/>
        <path id="Path_5537" data-name="Path 5537" d="M753.6,144.573V146.3h-.4v-1.684c0-.628-.317-.95-.854-.95a.955.955,0,0,0-.995,1.073v1.56h-.4v-1.684c0-.628-.316-.95-.859-.95a.958.958,0,0,0-.995,1.073v1.56h-.4v-2.973h.384v.543a1.2,1.2,0,0,1,1.091-.565,1.068,1.068,0,0,1,1.057.627,1.3,1.3,0,0,1,1.175-.627A1.122,1.122,0,0,1,753.6,144.573Z" transform="translate(-745.003 -142.103)" fill="#263238"/>
        <path id="Path_5538" data-name="Path 5538" d="M758.061,144.454V146.3h-.385v-.463a1.117,1.117,0,0,1-1.023.491c-.672,0-1.084-.35-1.084-.864,0-.457.294-.842,1.147-.842h.944v-.181c0-.509-.289-.786-.842-.786a1.512,1.512,0,0,0-.989.35l-.181-.3a1.89,1.89,0,0,1,1.21-.4A1.056,1.056,0,0,1,758.061,144.454Zm-.4.95v-.487h-.933c-.576,0-.762.227-.762.532,0,.344.277.559.752.559A.951.951,0,0,0,757.66,145.4Z" transform="translate(-746.129 -142.103)" fill="#263238"/>
        <path id="Path_5539" data-name="Path 5539" d="M759.744,142.151a.29.29,0,0,1,.294-.283.285.285,0,0,1,.294.277.294.294,0,0,1-.589.006Zm.091.938h.4v2.973h-.4Z" transform="translate(-746.814 -141.868)" fill="#263238"/>
        <path id="Path_5540" data-name="Path 5540" d="M761.671,141.868h.4v4.194h-.4Z" transform="translate(-747.13 -141.868)" fill="#263238"/>
      </g>
      <g id="Group_6646" data-name="Group 6646" transform="translate(5.545 10.263)">
        <path id="Path_5541" data-name="Path 5541" d="M750.383,158.022v.362h-2.8v-3.956H750.3v.362H748V156.2h2.045v.356H748v1.469Z" transform="translate(-747.586 -154.191)" fill="#263238"/>
        <path id="Path_5542" data-name="Path 5542" d="M756.911,156.85v1.723h-.4v-1.684c0-.628-.317-.95-.854-.95a.955.955,0,0,0-.995,1.073v1.56h-.4v-1.684c0-.628-.316-.95-.859-.95a.958.958,0,0,0-.995,1.073v1.56h-.4V155.6h.384v.543a1.2,1.2,0,0,1,1.091-.564,1.067,1.067,0,0,1,1.057.627,1.294,1.294,0,0,1,1.175-.627A1.122,1.122,0,0,1,756.911,156.85Z" transform="translate(-748.311 -154.379)" fill="#263238"/>
        <path id="Path_5543" data-name="Path 5543" d="M761.369,156.73v1.843h-.384v-.463a1.115,1.115,0,0,1-1.022.492c-.673,0-1.085-.35-1.085-.864,0-.458.293-.843,1.147-.843h.944v-.181c0-.508-.288-.785-.842-.785a1.517,1.517,0,0,0-.989.349l-.182-.3a1.886,1.886,0,0,1,1.21-.4A1.055,1.055,0,0,1,761.369,156.73Zm-.4.95v-.486h-.933c-.576,0-.763.226-.763.531,0,.345.277.559.752.559A.95.95,0,0,0,760.968,157.68Z" transform="translate(-749.437 -154.379)" fill="#263238"/>
        <path id="Path_5544" data-name="Path 5544" d="M763.053,154.427a.29.29,0,0,1,.293-.283.286.286,0,1,1,0,.571A.29.29,0,0,1,763.053,154.427Zm.09.938h.4v2.973h-.4Z" transform="translate(-750.122 -154.144)" fill="#263238"/>
        <path id="Path_5545" data-name="Path 5545" d="M764.979,154.144h.4v4.194h-.4Z" transform="translate(-750.438 -154.144)" fill="#263238"/>
        <path id="Path_5546" data-name="Path 5546" d="M769.531,156.85v1.723h-.4v-1.684a.83.83,0,0,0-.893-.95.974.974,0,0,0-1.04,1.073v1.56h-.4V155.6h.385v.548a1.248,1.248,0,0,1,1.13-.57A1.138,1.138,0,0,1,769.531,156.85Z" transform="translate(-750.736 -154.379)" fill="#263238"/>
        <path id="Path_5547" data-name="Path 5547" d="M773.565,156.73v1.843h-.384v-.463a1.118,1.118,0,0,1-1.023.492c-.672,0-1.085-.35-1.085-.864,0-.458.294-.843,1.148-.843h.944v-.181c0-.508-.288-.785-.843-.785a1.519,1.519,0,0,0-.989.349l-.181-.3a1.884,1.884,0,0,1,1.21-.4A1.055,1.055,0,0,1,773.565,156.73Zm-.4.95v-.486h-.933c-.577,0-.763.226-.763.531,0,.345.278.559.752.559A.951.951,0,0,0,773.165,157.68Z" transform="translate(-751.437 -154.379)" fill="#263238"/>
        <path id="Path_5548" data-name="Path 5548" d="M780.262,156.85v1.723h-.4v-1.684c0-.628-.316-.95-.853-.95a.955.955,0,0,0-.995,1.073v1.56h-.4v-1.684c0-.628-.316-.95-.859-.95a.958.958,0,0,0-.995,1.073v1.56h-.4V155.6h.385v.543a1.2,1.2,0,0,1,1.09-.564,1.069,1.069,0,0,1,1.058.627,1.292,1.292,0,0,1,1.175-.627A1.122,1.122,0,0,1,780.262,156.85Z" transform="translate(-752.14 -154.379)" fill="#263238"/>
        <path id="Path_5549" data-name="Path 5549" d="M785.07,157.211h-2.487a1.1,1.1,0,0,0,1.17,1.034,1.173,1.173,0,0,0,.91-.39l.226.26a1.572,1.572,0,0,1-2.707-1.029,1.432,1.432,0,0,1,1.453-1.508,1.416,1.416,0,0,1,1.44,1.508C785.075,157.12,785.07,157.166,785.07,157.211Zm-2.487-.3h2.108a1.056,1.056,0,0,0-2.108,0Z" transform="translate(-753.259 -154.379)" fill="#263238"/>
        <path id="Path_5550" data-name="Path 5550" d="M791.559,156.88c0,.961-.357,1.526-.939,1.526a.6.6,0,0,1-.639-.616,1.257,1.257,0,0,1-1.13.616,1.459,1.459,0,0,1,0-2.916,1.264,1.264,0,0,1,1.119.593v-.57h.367v2.142c0,.316.159.43.351.43.35,0,.576-.436.576-1.2a2.156,2.156,0,0,0-2.322-2.21,2.272,2.272,0,1,0-.023,4.544,2.492,2.492,0,0,0,1.085-.248l.1.277a2.738,2.738,0,0,1-1.18.26,2.561,2.561,0,1,1,.023-5.12A2.444,2.444,0,0,1,791.559,156.88Zm-1.583.062a1.078,1.078,0,1,0-1.074,1.136A1.053,1.053,0,0,0,789.977,156.942Z" transform="translate(-753.934 -154.184)" fill="#263238"/>
        <path id="Path_5551" data-name="Path 5551" d="M796.131,157.211h-2.487a1.1,1.1,0,0,0,1.17,1.034,1.17,1.17,0,0,0,.91-.39l.227.26a1.572,1.572,0,0,1-2.708-1.029,1.432,1.432,0,0,1,1.453-1.508,1.416,1.416,0,0,1,1.44,1.508C796.135,157.12,796.131,157.166,796.131,157.211Zm-2.487-.3h2.108a1.056,1.056,0,0,0-2.108,0Z" transform="translate(-755.072 -154.379)" fill="#263238"/>
        <path id="Path_5552" data-name="Path 5552" d="M802.587,156.85v1.723h-.4v-1.684c0-.628-.316-.95-.853-.95a.955.955,0,0,0-.995,1.073v1.56h-.4v-1.684c0-.628-.317-.95-.859-.95a.958.958,0,0,0-1,1.073v1.56h-.4V155.6h.384v.543a1.2,1.2,0,0,1,1.091-.564,1.068,1.068,0,0,1,1.057.627,1.294,1.294,0,0,1,1.175-.627A1.122,1.122,0,0,1,802.587,156.85Z" transform="translate(-755.8 -154.379)" fill="#263238"/>
        <path id="Path_5553" data-name="Path 5553" d="M807.045,156.73v1.843h-.384v-.463a1.117,1.117,0,0,1-1.023.492c-.672,0-1.085-.35-1.085-.864,0-.458.294-.843,1.148-.843h.944v-.181c0-.508-.289-.785-.843-.785a1.518,1.518,0,0,0-.989.349l-.181-.3a1.882,1.882,0,0,1,1.209-.4A1.055,1.055,0,0,1,807.045,156.73Zm-.4.95v-.486h-.933c-.577,0-.763.226-.763.531,0,.345.278.559.752.559A.951.951,0,0,0,806.645,157.68Z" transform="translate(-756.927 -154.379)" fill="#263238"/>
        <path id="Path_5554" data-name="Path 5554" d="M808.729,154.427a.29.29,0,0,1,.293-.283.285.285,0,0,1,.294.278.294.294,0,0,1-.588.005Zm.091.938h.4v2.973h-.4Z" transform="translate(-757.612 -154.144)" fill="#263238"/>
        <path id="Path_5555" data-name="Path 5555" d="M810.655,154.144h.4v4.194h-.4Z" transform="translate(-757.927 -154.144)" fill="#263238"/>
        <path id="Path_5556" data-name="Path 5556" d="M812.162,158.762a.3.3,0,0,1,.3-.305.3.3,0,0,1,.305.305.309.309,0,0,1-.305.311A.3.3,0,0,1,812.162,158.762Z" transform="translate(-758.174 -154.851)" fill="#263238"/>
        <path id="Path_5557" data-name="Path 5557" d="M813.446,157.086a1.463,1.463,0,0,1,1.532-1.508,1.3,1.3,0,0,1,1.164.588l-.3.2a1.009,1.009,0,0,0-.864-.441,1.159,1.159,0,0,0,0,2.317,1,1,0,0,0,.864-.435l.3.2a1.31,1.31,0,0,1-1.164.588A1.467,1.467,0,0,1,813.446,157.086Z" transform="translate(-758.385 -154.379)" fill="#263238"/>
        <path id="Path_5558" data-name="Path 5558" d="M817.189,157.086A1.512,1.512,0,1,1,818.7,158.6,1.461,1.461,0,0,1,817.189,157.086Zm2.617,0a1.106,1.106,0,1,0-1.1,1.159A1.084,1.084,0,0,0,819.806,157.086Z" transform="translate(-758.999 -154.379)" fill="#263238"/>
        <path id="Path_5559" data-name="Path 5559" d="M826.689,156.85v1.723h-.4v-1.684c0-.628-.317-.95-.853-.95a.955.955,0,0,0-.995,1.073v1.56h-.4v-1.684c0-.628-.317-.95-.859-.95a.958.958,0,0,0-.994,1.073v1.56h-.4V155.6h.385v.543a1.2,1.2,0,0,1,1.091-.564,1.068,1.068,0,0,1,1.057.627,1.293,1.293,0,0,1,1.175-.627A1.122,1.122,0,0,1,826.689,156.85Z" transform="translate(-759.752 -154.379)" fill="#263238"/>
      </g>
      <g id="Group_6647" data-name="Group 6647" transform="translate(5.026 36.97)">
        <path id="Path_5560" data-name="Path 5560" d="M748.2,187.112l.7.4-.13.237-.706-.412v.8h-.26l.005-.8-.706.412-.135-.237.706-.4-.706-.4.135-.243.706.418-.005-.8h.26v.8l.706-.418.13.243Z" transform="translate(-746.965 -186.089)" fill="#263238"/>
        <path id="Path_5561" data-name="Path 5561" d="M750.94,187.112l.7.4-.13.237-.706-.412v.8h-.26l.006-.8-.706.412-.135-.237.706-.4-.706-.4.135-.243.706.418-.006-.8h.26v.8l.706-.418.13.243Z" transform="translate(-747.415 -186.089)" fill="#263238"/>
        <path id="Path_5562" data-name="Path 5562" d="M753.682,187.112l.7.4-.13.237-.706-.412v.8h-.26l.006-.8-.706.412-.135-.237.707-.4-.707-.4.135-.243.706.418-.006-.8h.26v.8l.706-.418.13.243Z" transform="translate(-747.865 -186.089)" fill="#263238"/>
        <path id="Path_5563" data-name="Path 5563" d="M756.425,187.112l.7.4-.13.237-.706-.412v.8h-.26l.006-.8-.706.412-.135-.237.706-.4-.706-.4.135-.243.706.418-.006-.8h.26v.8l.706-.418.13.243Z" transform="translate(-748.314 -186.089)" fill="#263238"/>
        <path id="Path_5564" data-name="Path 5564" d="M759.168,187.112l.7.4-.13.237-.707-.412v.8h-.26l.006-.8-.706.412-.135-.237.706-.4-.706-.4.135-.243.706.418-.006-.8h.26v.8l.707-.418.13.243Z" transform="translate(-748.764 -186.089)" fill="#263238"/>
        <path id="Path_5565" data-name="Path 5565" d="M761.912,187.112l.7.4-.13.237-.707-.412v.8h-.26l.006-.8-.706.412-.136-.237.706-.4-.706-.4.136-.243.706.418-.006-.8h.26v.8l.707-.418.13.243Z" transform="translate(-749.214 -186.089)" fill="#263238"/>
        <path id="Path_5566" data-name="Path 5566" d="M764.655,187.112l.7.4-.13.237-.706-.412v.8h-.26l.005-.8-.706.412-.135-.237.706-.4-.706-.4.135-.243.706.418-.005-.8h.26v.8l.706-.418.13.243Z" transform="translate(-749.664 -186.089)" fill="#263238"/>
        <path id="Path_5567" data-name="Path 5567" d="M767.4,187.112l.7.4-.13.237-.706-.412v.8H767l.006-.8-.706.412-.135-.237.706-.4-.706-.4.135-.243.706.418-.006-.8h.26v.8l.706-.418.13.243Z" transform="translate(-750.114 -186.089)" fill="#263238"/>
        <path id="Path_5568" data-name="Path 5568" d="M770.141,187.112l.7.4-.13.237-.706-.412v.8h-.26l.006-.8-.706.412-.135-.237.706-.4-.706-.4.135-.243.706.418-.006-.8h.26v.8l.706-.418.13.243Z" transform="translate(-750.563 -186.089)" fill="#263238"/>
        <path id="Path_5569" data-name="Path 5569" d="M772.884,187.112l.7.4-.13.237-.706-.412v.8h-.26l.006-.8-.706.412-.135-.237.706-.4-.706-.4.135-.243.706.418-.006-.8h.26v.8l.706-.418.13.243Z" transform="translate(-751.013 -186.089)" fill="#263238"/>
        <path id="Path_5570" data-name="Path 5570" d="M775.628,187.112l.7.4-.13.237-.707-.412v.8h-.26l.006-.8-.706.412-.135-.237.706-.4-.706-.4.135-.243.706.418-.006-.8h.26v.8l.707-.418.13.243Z" transform="translate(-751.463 -186.089)" fill="#263238"/>
      </g>
      <g id="Group_6648" data-name="Group 6648" transform="translate(2.78 25.078)">
        <path id="Path_5571" data-name="Path 5571" d="M747.376,173.505c0,.843-.611,1.351-1.617,1.351H744.7v1.249h-.419v-3.956h1.481C746.764,172.149,747.376,172.657,747.376,173.505Zm-.419,0c0-.633-.418-.995-1.209-.995H744.7v1.979h1.051C746.539,174.489,746.957,174.127,746.957,173.505Z" transform="translate(-744.278 -171.912)" fill="#263238"/>
        <path id="Path_5572" data-name="Path 5572" d="M751.122,174.451v1.843h-.385v-.463a1.119,1.119,0,0,1-1.023.492c-.672,0-1.085-.35-1.085-.865,0-.457.294-.842,1.148-.842h.944v-.181c0-.509-.288-.786-.843-.786a1.514,1.514,0,0,0-.989.35l-.181-.3a1.889,1.889,0,0,1,1.21-.4A1.056,1.056,0,0,1,751.122,174.451Zm-.4.95v-.487h-.933c-.577,0-.763.227-.763.532,0,.344.278.559.752.559A.953.953,0,0,0,750.721,175.4Z" transform="translate(-744.991 -172.1)" fill="#263238"/>
        <path id="Path_5573" data-name="Path 5573" d="M752.42,175.954l.181-.316a1.793,1.793,0,0,0,1.057.334c.564,0,.8-.192.8-.487,0-.774-1.927-.164-1.927-1.339,0-.486.418-.848,1.175-.848a2.023,2.023,0,0,1,1.052.277l-.176.323a1.519,1.519,0,0,0-.876-.255c-.537,0-.773.21-.773.492,0,.8,1.927.2,1.927,1.339,0,.514-.452.848-1.227.848A1.982,1.982,0,0,1,752.42,175.954Z" transform="translate(-745.613 -172.1)" fill="#263238"/>
        <path id="Path_5574" data-name="Path 5574" d="M755.724,175.954l.181-.316a1.793,1.793,0,0,0,1.057.334c.565,0,.8-.192.8-.487,0-.774-1.927-.164-1.927-1.339,0-.486.418-.848,1.175-.848a2.018,2.018,0,0,1,1.051.277l-.176.323a1.518,1.518,0,0,0-.875-.255c-.538,0-.774.21-.774.492,0,.8,1.927.2,1.927,1.339,0,.514-.452.848-1.226.848A1.983,1.983,0,0,1,755.724,175.954Z" transform="translate(-746.155 -172.1)" fill="#263238"/>
        <path id="Path_5575" data-name="Path 5575" d="M763.717,173.325l-1.124,2.973h-.379l-.938-2.436-.938,2.436h-.379l-1.119-2.973h.384l.932,2.527.956-2.527h.344l.95,2.527.944-2.527Z" transform="translate(-746.666 -172.104)" fill="#263238"/>
        <path id="Path_5576" data-name="Path 5576" d="M764.935,174.807a1.512,1.512,0,1,1,1.514,1.515A1.462,1.462,0,0,1,764.935,174.807Zm2.616,0a1.106,1.106,0,1,0-1.1,1.159A1.084,1.084,0,0,0,767.551,174.807Z" transform="translate(-747.665 -172.1)" fill="#263238"/>
        <path id="Path_5577" data-name="Path 5577" d="M771.027,173.3v.39c-.033,0-.068-.006-.1-.006a.961.961,0,0,0-1,1.1v1.515h-.4v-2.973h.385v.582A1.12,1.12,0,0,1,771.027,173.3Z" transform="translate(-748.419 -172.1)" fill="#263238"/>
        <path id="Path_5578" data-name="Path 5578" d="M774.805,171.865v4.194h-.385v-.588a1.287,1.287,0,0,1-1.147.616,1.512,1.512,0,0,1,0-3.024,1.3,1.3,0,0,1,1.13.588v-1.786Zm-.4,2.707a1.106,1.106,0,1,0-1.1,1.159A1.087,1.087,0,0,0,774.41,174.572Z" transform="translate(-748.79 -171.865)" fill="#263238"/>
      </g>
      <g id="Group_6649" data-name="Group 6649" transform="translate(33.4 59.212)">
        <path id="Path_5579" data-name="Path 5579" d="M782.243,212.734v3.956h-.407V213.1H780.9v-.361Z" transform="translate(-780.904 -212.7)" fill="#263238"/>
        <path id="Path_5580" data-name="Path 5580" d="M786.3,216.321v.362h-2.775v-.288l1.644-1.611c.446-.441.532-.706.532-.977,0-.458-.323-.74-.927-.74a1.344,1.344,0,0,0-1.079.441l-.289-.248a1.777,1.777,0,0,1,1.4-.566c.8,0,1.312.407,1.312,1.068a1.628,1.628,0,0,1-.65,1.238l-1.345,1.322Z" transform="translate(-781.314 -212.693)" fill="#263238"/>
        <path id="Path_5581" data-name="Path 5581" d="M790.041,215.554c0,.661-.481,1.17-1.435,1.17a2.057,2.057,0,0,1-1.425-.508l.2-.322a1.731,1.731,0,0,0,1.226.457c.655,0,1.017-.305,1.017-.8,0-.474-.334-.786-1.068-.786h-.283v-.3l1.1-1.374h-2.023v-.361h2.543v.288l-1.119,1.407C789.617,214.475,790.041,214.921,790.041,215.554Z" transform="translate(-781.933 -212.7)" fill="#263238"/>
        <path id="Path_5582" data-name="Path 5582" d="M794.631,215.65h-.791v1.04h-.407v-1.04H791.2v-.293l2.1-2.623h.452l-2.023,2.555h1.718v-.916h.4v.916h.791Z" transform="translate(-782.592 -212.7)" fill="#263238"/>
        <path id="Path_5583" data-name="Path 5583" d="M800.171,215.526c0,.673-.47,1.2-1.436,1.2a2.039,2.039,0,0,1-1.418-.508l.2-.322a1.716,1.716,0,0,0,1.215.457c.673,0,1.029-.328,1.029-.808,0-.509-.317-.825-1.323-.825h-.842l.2-1.984h2.164v.361h-1.808l-.135,1.261h.508C799.719,214.356,800.171,214.825,800.171,215.526Z" transform="translate(-783.595 -212.7)" fill="#263238"/>
        <path id="Path_5584" data-name="Path 5584" d="M804.316,215.5a1.233,1.233,0,0,1-1.351,1.215c-1.051,0-1.621-.729-1.621-1.977,0-1.345.735-2.047,1.807-2.047a1.823,1.823,0,0,1,.939.215l-.165.328a1.381,1.381,0,0,0-.768-.186c-.854,0-1.4.548-1.4,1.623,0,.089.007.2.018.322a1.263,1.263,0,0,1,1.209-.679A1.2,1.2,0,0,1,804.316,215.5Zm-.4.011c0-.519-.385-.853-.995-.853a.916.916,0,0,0-1.017.864c0,.436.363.848,1.046.848A.866.866,0,0,0,803.915,215.513Z" transform="translate(-784.256 -212.693)" fill="#263238"/>
        <path id="Path_5585" data-name="Path 5585" d="M808.174,212.734v.288l-1.656,3.668h-.44l1.627-3.595H805.67v.741h-.4v-1.1Z" transform="translate(-784.899 -212.7)" fill="#263238"/>
        <path id="Path_5586" data-name="Path 5586" d="M812.292,215.581c0,.7-.594,1.136-1.537,1.136s-1.526-.435-1.526-1.136a.987.987,0,0,1,.762-.971.892.892,0,0,1-.62-.87c0-.645.547-1.046,1.384-1.046s1.4.4,1.4,1.046a.9.9,0,0,1-.633.87A1,1,0,0,1,812.292,215.581Zm-.418-.005c0-.486-.418-.792-1.119-.792s-1.113.306-1.113.792.412.8,1.113.8S811.874,216.067,811.874,215.576Zm-1.119-1.114c.616,0,.984-.277.984-.706,0-.446-.39-.717-.984-.717s-.977.271-.977.711S810.139,214.462,810.755,214.462Z" transform="translate(-785.548 -212.693)" fill="#263238"/>
        <path id="Path_5587" data-name="Path 5587" d="M818.167,214.672c0,1.344-.734,2.045-1.808,2.045a1.811,1.811,0,0,1-.938-.215l.164-.328a1.393,1.393,0,0,0,.769.187c.854,0,1.4-.548,1.4-1.622,0-.091-.006-.2-.017-.323a1.263,1.263,0,0,1-1.21.678,1.2,1.2,0,0,1-1.333-1.186,1.232,1.232,0,0,1,1.35-1.216C817.6,212.693,818.167,213.422,818.167,214.672Zm-.559-.786c0-.436-.361-.848-1.045-.848a.866.866,0,0,0-.966.859c0,.52.385.854.995.854A.915.915,0,0,0,817.608,213.886Z" transform="translate(-786.527 -212.693)" fill="#263238"/>
        <path id="Path_5588" data-name="Path 5588" d="M820.487,212.734v3.956h-.407V213.1h-.932v-.361Z" transform="translate(-787.175 -212.7)" fill="#263238"/>
        <path id="Path_5589" data-name="Path 5589" d="M821.878,214.705c0-1.26.661-2.012,1.577-2.012s1.583.752,1.583,2.012-.667,2.011-1.583,2.011S821.878,215.965,821.878,214.705Zm2.741,0c0-1.057-.475-1.639-1.165-1.639s-1.165.582-1.165,1.639.476,1.639,1.165,1.639S824.619,215.762,824.619,214.705Z" transform="translate(-787.622 -212.693)" fill="#263238"/>
        <path id="Path_5590" data-name="Path 5590" d="M827.386,212.734v3.956h-.408V213.1h-.932v-.361Z" transform="translate(-788.306 -212.7)" fill="#263238"/>
        <path id="Path_5591" data-name="Path 5591" d="M831.6,212.734v3.956h-.408V213.1h-.932v-.361Z" transform="translate(-788.996 -212.7)" fill="#263238"/>
        <path id="Path_5592" data-name="Path 5592" d="M834.034,212.734v3.956h-.407V213.1H832.7v-.361Z" transform="translate(-789.396 -212.7)" fill="#263238"/>
        <path id="Path_5593" data-name="Path 5593" d="M838.089,216.321v.362h-2.776v-.288l1.644-1.611c.446-.441.532-.706.532-.977,0-.458-.323-.74-.927-.74a1.344,1.344,0,0,0-1.079.441l-.288-.248a1.775,1.775,0,0,1,1.4-.566c.8,0,1.312.407,1.312,1.068a1.628,1.628,0,0,1-.65,1.238l-1.344,1.322Z" transform="translate(-789.806 -212.693)" fill="#263238"/>
        <path id="Path_5594" data-name="Path 5594" d="M840.312,212.734v3.956H839.9V213.1h-.932v-.361Z" transform="translate(-790.425 -212.7)" fill="#263238"/>
      </g>
      <g id="Group_6650" data-name="Group 6650" transform="translate(3.839 56.685)">
        <path id="Path_5595" data-name="Path 5595" d="M758.322,211.324v-.6a1.052,1.052,0,0,0-1.052-1.053H746.6a1.053,1.053,0,0,0-1.053,1.053v.6Z" transform="translate(-745.545 -209.67)" fill="#263238"/>
        <path id="Path_5596" data-name="Path 5596" d="M745.545,212.637v4.434a1.053,1.053,0,0,0,1.053,1.053H757.27a1.052,1.052,0,0,0,1.052-1.053v-4.434Z" transform="translate(-745.545 -210.156)" fill="#263238"/>
      </g>
      <g id="Group_6651" data-name="Group 6651" transform="translate(3.998 79.722)">
        <path id="Path_5597" data-name="Path 5597" d="M745.735,240.157c0-1.261.661-2.012,1.577-2.012s1.583.752,1.583,2.012-.667,2.011-1.583,2.011S745.735,241.417,745.735,240.157Zm2.741,0c0-1.057-.474-1.639-1.164-1.639s-1.164.583-1.164,1.639.475,1.639,1.164,1.639S748.476,241.213,748.476,240.157Z" transform="translate(-745.735 -237.377)" fill="#263238"/>
        <path id="Path_5598" data-name="Path 5598" d="M753.244,241.033c0,.7-.594,1.136-1.537,1.136s-1.526-.436-1.526-1.136a.989.989,0,0,1,.763-.972.892.892,0,0,1-.622-.87c0-.644.548-1.045,1.384-1.045s1.4.4,1.4,1.045a.894.894,0,0,1-.633.87A1,1,0,0,1,753.244,241.033Zm-.418-.005c0-.487-.418-.792-1.119-.792s-1.113.305-1.113.792.412.8,1.113.8S752.826,241.519,752.826,241.028Zm-1.119-1.114c.616,0,.983-.277.983-.706,0-.446-.39-.717-.983-.717s-.977.271-.977.711S751.091,239.914,751.707,239.914Z" transform="translate(-746.464 -237.377)" fill="#263238"/>
        <path id="Path_5599" data-name="Path 5599" d="M755.863,237.226h.367l-1.864,5.323H754Z" transform="translate(-747.09 -237.226)" fill="#263238"/>
        <path id="Path_5600" data-name="Path 5600" d="M759.446,241.773v.361h-2.774v-.288l1.644-1.611c.447-.441.532-.706.532-.977,0-.458-.322-.741-.927-.741a1.342,1.342,0,0,0-1.079.441l-.288-.249a1.779,1.779,0,0,1,1.4-.565c.8,0,1.311.407,1.311,1.068a1.629,1.629,0,0,1-.649,1.237l-1.345,1.323Z" transform="translate(-747.509 -237.377)" fill="#263238"/>
        <path id="Path_5601" data-name="Path 5601" d="M763.271,240.977c0,.673-.469,1.2-1.435,1.2a2.04,2.04,0,0,1-1.418-.508l.2-.323a1.714,1.714,0,0,0,1.216.458c.672,0,1.028-.328,1.028-.808,0-.508-.317-.824-1.323-.824h-.842l.2-1.985h2.164v.362h-1.808l-.135,1.261h.508C762.819,239.808,763.271,240.277,763.271,240.977Z" transform="translate(-748.143 -237.383)" fill="#263238"/>
      </g>
      <g id="Group_6652" data-name="Group 6652" transform="translate(4.104 75.745)">
        <path id="Path_5602" data-name="Path 5602" d="M747.6,234.7v.225h-1.736v-2.456h1.684v.225h-1.425v.874h1.27v.221h-1.27v.912Z" transform="translate(-745.862 -232.469)" fill="#263238"/>
        <path id="Path_5603" data-name="Path 5603" d="M750.108,234.925l-.793-1.081-.789,1.081h-.3l.933-1.263-.874-1.193h.3l.74,1,.737-1h.28l-.869,1.186.936,1.27Z" transform="translate(-746.25 -232.469)" fill="#263238"/>
        <path id="Path_5604" data-name="Path 5604" d="M753.213,233.312c0,.523-.379.838-1,.838h-.66v.776h-.259v-2.456h.919C752.834,232.469,753.213,232.785,753.213,233.312Zm-.259,0c0-.394-.26-.618-.751-.618h-.653v1.227h.653C752.694,233.921,752.954,233.7,752.954,233.312Z" transform="translate(-746.752 -232.469)" fill="#263238"/>
        <path id="Path_5605" data-name="Path 5605" d="M755.408,232.469h1a1.231,1.231,0,1,1,0,2.456h-1Zm.987,2.231a1.005,1.005,0,1,0,0-2.006h-.727V234.7Z" transform="translate(-747.427 -232.469)" fill="#263238"/>
        <path id="Path_5606" data-name="Path 5606" d="M760.179,233.9v1.144h-.239v-.288a.692.692,0,0,1-.635.306c-.418,0-.674-.218-.674-.537,0-.284.182-.523.712-.523h.585v-.113c0-.316-.179-.487-.523-.487a.937.937,0,0,0-.614.217l-.112-.186a1.175,1.175,0,0,1,.751-.248A.656.656,0,0,1,760.179,233.9Zm-.25.589v-.3h-.579c-.358,0-.473.14-.473.329,0,.214.171.348.467.348A.59.59,0,0,0,759.93,234.488Z" transform="translate(-747.956 -232.586)" fill="#263238"/>
        <path id="Path_5607" data-name="Path 5607" d="M762.211,234.853a.593.593,0,0,1-.39.13.489.489,0,0,1-.54-.537v-1.116h-.33v-.21h.33v-.4h.249v.4h.561v.21h-.561v1.1a.3.3,0,0,0,.319.337.415.415,0,0,0,.273-.094Z" transform="translate(-748.336 -232.51)" fill="#263238"/>
        <path id="Path_5608" data-name="Path 5608" d="M764.492,234.2h-1.544a.684.684,0,0,0,.727.643.728.728,0,0,0,.565-.242l.141.161a.976.976,0,0,1-1.68-.639.888.888,0,0,1,.9-.936.879.879,0,0,1,.895.936C764.5,234.14,764.492,234.169,764.492,234.2Zm-1.544-.186h1.309a.656.656,0,0,0-1.309,0Z" transform="translate(-748.623 -232.586)" fill="#263238"/>
      </g>
      <g id="Group_6653" data-name="Group 6653" transform="translate(49.353 80.49)">
        <path id="Path_5609" data-name="Path 5609" d="M801.323,238.185v3.956h-.406v-3.594h-.932v-.362Z" transform="translate(-799.985 -238.152)" fill="#263238"/>
        <path id="Path_5610" data-name="Path 5610" d="M805.378,241.773v.361H802.6v-.288l1.644-1.611c.446-.441.532-.706.532-.977,0-.458-.322-.741-.928-.741a1.344,1.344,0,0,0-1.079.441l-.287-.249a1.778,1.778,0,0,1,1.4-.565c.8,0,1.312.407,1.312,1.068a1.63,1.63,0,0,1-.65,1.237l-1.345,1.323Z" transform="translate(-800.395 -238.145)" fill="#263238"/>
        <path id="Path_5611" data-name="Path 5611" d="M809.121,241.006c0,.661-.48,1.17-1.435,1.17a2.053,2.053,0,0,1-1.424-.508l.2-.323a1.733,1.733,0,0,0,1.227.458c.655,0,1.017-.305,1.017-.8,0-.475-.334-.786-1.068-.786h-.283v-.3l1.1-1.374h-2.023v-.362h2.543v.288l-1.12,1.408C808.7,239.926,809.121,240.373,809.121,241.006Z" transform="translate(-801.014 -238.152)" fill="#263238"/>
      </g>
      <g id="Group_6654" data-name="Group 6654" transform="translate(49.483 75.724)">
        <path id="Path_5612" data-name="Path 5612" d="M800.141,233.693a1.234,1.234,0,0,1,1.288-1.249,1.191,1.191,0,0,1,.9.358l-.165.165a.976.976,0,0,0-.727-.291,1.018,1.018,0,1,0,0,2.035.966.966,0,0,0,.727-.294l.165.164a1.194,1.194,0,0,1-.9.362A1.232,1.232,0,0,1,800.141,233.693Z" transform="translate(-800.141 -232.444)" fill="#263238"/>
        <path id="Path_5613" data-name="Path 5613" d="M806.708,232.469l-.828,2.456h-.274l-.719-2.094-.723,2.094h-.269l-.828-2.456h.266l.709,2.113.733-2.113h.242l.723,2.123.718-2.123Z" transform="translate(-800.621 -232.448)" fill="#263238"/>
      </g>
    </g>
    <g id="Group_6656" data-name="Group 6656" transform="translate(738.583 227.413)">
      <path id="Path_5614" data-name="Path 5614" d="M774.738,267.765h-2.2l-.475,1.057h-.436l1.808-3.956h.413l1.808,3.956h-.441Zm-.153-.339-.949-2.124-.95,2.124Z" transform="translate(-771.624 -264.629)" fill="#263238"/>
      <path id="Path_5615" data-name="Path 5615" d="M776.733,267.524a1.463,1.463,0,0,1,1.531-1.509,1.3,1.3,0,0,1,1.165.588l-.3.2a1.011,1.011,0,0,0-.865-.44,1.159,1.159,0,0,0,0,2.317,1.007,1.007,0,0,0,.865-.436l.3.2a1.312,1.312,0,0,1-1.165.588A1.468,1.468,0,0,1,776.733,267.524Z" transform="translate(-772.462 -264.817)" fill="#263238"/>
      <path id="Path_5616" data-name="Path 5616" d="M782.41,268.706a.95.95,0,0,1-.627.21.787.787,0,0,1-.87-.864v-1.8h-.532v-.339h.532v-.65h.4v.65h.9v.339h-.9v1.775a.476.476,0,0,0,.514.543.662.662,0,0,0,.441-.153Z" transform="translate(-773.06 -264.694)" fill="#263238"/>
      <path id="Path_5617" data-name="Path 5617" d="M783.571,264.865a.289.289,0,0,1,.293-.283.285.285,0,0,1,.294.277.294.294,0,0,1-.588.006Zm.09.938h.4v2.973h-.4Z" transform="translate(-773.583 -264.582)" fill="#263238"/>
      <path id="Path_5618" data-name="Path 5618" d="M785.138,267.524a1.512,1.512,0,1,1,1.515,1.515A1.462,1.462,0,0,1,785.138,267.524Zm2.616,0a1.106,1.106,0,1,0-1.1,1.159A1.083,1.083,0,0,0,787.754,267.524Z" transform="translate(-773.84 -264.817)" fill="#263238"/>
      <path id="Path_5619" data-name="Path 5619" d="M792.469,267.287v1.724h-.4v-1.685a.83.83,0,0,0-.893-.95.975.975,0,0,0-1.04,1.074v1.56h-.4v-2.973h.385v.548a1.25,1.25,0,0,1,1.13-.571A1.138,1.138,0,0,1,792.469,267.287Z" transform="translate(-774.593 -264.817)" fill="#263238"/>
      <path id="Path_5620" data-name="Path 5620" d="M796.6,265.228v1.553h2.045v.362H796.6v1.679h-.419v-3.956h2.713v.362Z" transform="translate(-775.65 -264.629)" fill="#263238"/>
      <path id="Path_5621" data-name="Path 5621" d="M800.179,264.865a.289.289,0,0,1,.294-.283.284.284,0,0,1,.293.277.294.294,0,0,1-.588.006Zm.09.938h.4v2.973h-.4Z" transform="translate(-776.306 -264.582)" fill="#263238"/>
      <path id="Path_5622" data-name="Path 5622" d="M804.8,266.038v2.611a1.3,1.3,0,0,1-1.486,1.486,2.069,2.069,0,0,1-1.384-.457l.2-.305a1.773,1.773,0,0,0,1.171.407c.751,0,1.1-.345,1.1-1.079v-.379a1.336,1.336,0,0,1-1.157.577,1.442,1.442,0,1,1,0-2.883,1.343,1.343,0,0,1,1.175.594v-.571Zm-.39,1.413a1.128,1.128,0,1,0-1.13,1.09A1.062,1.062,0,0,0,804.408,267.45Z" transform="translate(-776.563 -264.817)" fill="#263238"/>
      <path id="Path_5623" data-name="Path 5623" d="M809.413,266.042v2.973h-.384v-.543a1.184,1.184,0,0,1-1.068.571,1.153,1.153,0,0,1-1.256-1.278v-1.723h.4v1.685a.832.832,0,0,0,.893.955.967.967,0,0,0,1.012-1.079v-1.56Z" transform="translate(-777.376 -264.821)" fill="#263238"/>
      <path id="Path_5624" data-name="Path 5624" d="M812.784,266.015v.39c-.034,0-.068,0-.1,0a.961.961,0,0,0-1,1.1v1.515h-.4v-2.973h.384v.582A1.123,1.123,0,0,1,812.784,266.015Z" transform="translate(-778.128 -264.817)" fill="#263238"/>
      <path id="Path_5625" data-name="Path 5625" d="M816.439,267.649h-2.486a1.1,1.1,0,0,0,1.169,1.034,1.173,1.173,0,0,0,.91-.39l.225.26a1.571,1.571,0,0,1-2.706-1.028A1.432,1.432,0,0,1,815,266.015a1.417,1.417,0,0,1,1.441,1.509C816.445,267.557,816.439,267.6,816.439,267.649Zm-2.486-.3h2.107a1.056,1.056,0,0,0-2.107,0Z" transform="translate(-778.499 -264.817)" fill="#263238"/>
    </g>
    <g id="Group_6657" data-name="Group 6657" transform="translate(738.056 234.617)">
      <path id="Path_5626" data-name="Path 5626" d="M776.412,286.053v1.739H774.86V286.1a7.355,7.355,0,0,1-3.866-1.242l.854-1.894a6.274,6.274,0,0,0,3.011,1.1v-2.592c-1.723-.42-3.648-.994-3.648-3.215,0-1.645,1.2-3.058,3.648-3.337V273.2h1.552v1.693a7.02,7.02,0,0,1,3.152.946l-.776,1.91a6.345,6.345,0,0,0-2.376-.808v2.639c1.723.4,3.617.978,3.617,3.167C780.03,284.361,778.85,285.759,776.412,286.053Zm-1.552-6.862v-2.2c-.823.186-1.149.637-1.149,1.149C773.711,278.679,774.177,278.973,774.86,279.191Zm2.67,3.742c0-.544-.45-.839-1.118-1.072V284C777.189,283.833,777.53,283.429,777.53,282.933Z" transform="translate(-770.994 -273.198)" fill="#263238"/>
      <path id="Path_5627" data-name="Path 5627" d="M791.05,284.209v2.049h-8.213v-1.63l4.192-3.959c.962-.916,1.134-1.474,1.134-2,0-.854-.59-1.351-1.74-1.351a2.656,2.656,0,0,0-2.251,1.087l-1.832-1.18a5.046,5.046,0,0,1,4.316-2.018c2.422,0,4.036,1.241,4.036,3.214,0,1.055-.3,2.018-1.816,3.431l-2.5,2.36Z" transform="translate(-772.854 -273.527)" fill="#263238"/>
      <path id="Path_5628" data-name="Path 5628" d="M793.964,280.825c0-3.587,1.986-5.621,4.657-5.621s4.658,2.034,4.658,5.621-1.972,5.619-4.658,5.619S793.964,284.41,793.964,280.825Zm6.784,0c0-2.469-.869-3.494-2.126-3.494-1.242,0-2.112,1.025-2.112,3.494s.87,3.492,2.112,3.492C799.879,284.317,800.748,283.293,800.748,280.825Z" transform="translate(-774.76 -273.527)" fill="#263238"/>
      <path id="Path_5629" data-name="Path 5629" d="M806.573,280.825c0-3.587,1.987-5.621,4.657-5.621,2.686,0,4.657,2.034,4.657,5.621s-1.971,5.619-4.657,5.619C808.56,286.444,806.573,284.41,806.573,280.825Zm6.784,0c0-2.469-.87-3.494-2.128-3.494-1.242,0-2.112,1.025-2.112,3.494s.87,3.492,2.112,3.492C812.487,284.317,813.357,283.293,813.357,280.825Z" transform="translate(-776.828 -273.527)" fill="#263238"/>
    </g>
    <path id="Path_5630" data-name="Path 5630" d="M806.8,318.346H772.146a8.111,8.111,0,0,1-8.111-8.11h0a8.111,8.111,0,0,1,8.111-8.111H806.8a8.111,8.111,0,0,1,8.111,8.111h0A8.111,8.111,0,0,1,806.8,318.346Z" transform="translate(-31.797 -43.324)" fill="#263238"/>
    <g id="Group_6658" data-name="Group 6658" transform="translate(742.822 263.594)">
      <path id="Path_5631" data-name="Path 5631" d="M780.427,310.472c0,1.015-.735,1.628-1.948,1.628H777.2v1.506h-.5v-4.769h1.785C779.692,308.837,780.427,309.45,780.427,310.472Zm-.5,0c0-.763-.5-1.2-1.457-1.2H777.2v2.385h1.267C779.419,311.658,779.923,311.221,779.923,310.472Z" transform="translate(-776.694 -308.019)" fill="#fff"/>
      <path id="Path_5632" data-name="Path 5632" d="M784.946,311.613v2.22h-.463v-.558a1.348,1.348,0,0,1-1.233.593c-.811,0-1.308-.423-1.308-1.043,0-.552.354-1.015,1.382-1.015h1.138v-.218c0-.613-.347-.947-1.015-.947a1.829,1.829,0,0,0-1.192.422l-.218-.36a2.282,2.282,0,0,1,1.459-.483A1.272,1.272,0,0,1,784.946,311.613Zm-.484,1.145v-.586h-1.124c-.695,0-.92.273-.92.64,0,.416.334.675.905.675A1.147,1.147,0,0,0,784.462,312.757Z" transform="translate(-777.554 -308.247)" fill="#fff"/>
      <path id="Path_5633" data-name="Path 5633" d="M789.872,310.255l-1.792,4.013c-.3.7-.681.925-1.192.925a1.224,1.224,0,0,1-.872-.327l.224-.36a.9.9,0,0,0,.655.272c.32,0,.538-.15.742-.6l.156-.347-1.6-3.577h.5l1.348,3.045,1.349-3.045Z" transform="translate(-778.223 -308.252)" fill="#fff"/>
      <path id="Path_5634" data-name="Path 5634" d="M795.123,313.48v.783h-.341v-.777a2.557,2.557,0,0,1-1.628-.619l.2-.389a2.323,2.323,0,0,0,1.43.572v-1.791c-.749-.185-1.512-.416-1.512-1.316,0-.654.47-1.219,1.512-1.3v-.784h.341v.777a2.663,2.663,0,0,1,1.382.423l-.17.4a2.526,2.526,0,0,0-1.212-.395v1.8c.77.184,1.58.4,1.58,1.314C796.7,312.846,796.206,313.419,795.123,313.48Zm-.341-2.7v-1.7c-.7.062-1.015.422-1.015.852C793.767,310.448,794.223,310.639,794.782,310.782Zm1.424,1.43c0-.538-.5-.722-1.083-.865v1.7C795.872,313,796.206,312.649,796.206,312.212Z" transform="translate(-779.393 -307.859)" fill="#fff"/>
      <path id="Path_5635" data-name="Path 5635" d="M801.416,313.161v.436h-3.344v-.348l1.982-1.941c.538-.531.64-.851.64-1.178,0-.553-.389-.893-1.117-.893a1.62,1.62,0,0,0-1.3.532l-.348-.3a2.145,2.145,0,0,1,1.691-.681c.967,0,1.58.491,1.58,1.288a1.965,1.965,0,0,1-.783,1.492l-1.622,1.593Z" transform="translate(-780.176 -308.011)" fill="#fff"/>
      <path id="Path_5636" data-name="Path 5636" d="M802.8,311.213c0-1.519.8-2.425,1.9-2.425s1.907.906,1.907,2.425-.8,2.425-1.907,2.425S802.8,312.732,802.8,311.213Zm3.3,0c0-1.274-.571-1.976-1.4-1.976s-1.4.7-1.4,1.976.572,1.976,1.4,1.976S806.1,312.487,806.1,311.213Z" transform="translate(-780.975 -308.011)" fill="#fff"/>
      <path id="Path_5637" data-name="Path 5637" d="M808.2,311.213c0-1.519.8-2.425,1.9-2.425s1.907.906,1.907,2.425-.8,2.425-1.907,2.425S808.2,312.732,808.2,311.213Zm3.3,0c0-1.274-.573-1.976-1.4-1.976s-1.4.7-1.4,1.976.573,1.976,1.4,1.976S811.5,312.487,811.5,311.213Z" transform="translate(-781.859 -308.011)" fill="#fff"/>
    </g>
    <path id="Path_5638" data-name="Path 5638" d="M719.118,263.086c1.254,19.272-7.676,40.733-7.676,40.733l-48.226-13.58-8.412-2.371c8.344-11.62,12.341-34.486,10.16-53-.167-1.4-.273-2.713-.342-3.959-.8-15.268,5.5-19.736,10.868-26.485,5.814-7.3,18.877-34.9,18.877-41.424s16.339-22.509,12.707-40.657c0,0,4.939-3.062,9.909-.548,2.249,1.14,4.506,3.42,6.315,7.646,4.255,9.948-1.718,38.043-6.8,44.936l-9.788,40.527a86.816,86.816,0,0,1,6.544,16.028A137.845,137.845,0,0,1,719.118,263.086Z" transform="translate(-13.886 -13.594)" fill="#fff"/>
    <path id="Path_5639" data-name="Path 5639" d="M664.622,252.505c2.728,7.477,5.632,12.5,5.381,23.018s-5.86,26.621-4.256,35a7.4,7.4,0,0,0-2.531,1.308l-8.412-2.371c8.344-11.62,12.341-34.486,10.16-53C664.8,255.066,664.691,253.752,664.622,252.505Z" transform="translate(-13.886 -35.188)" fill="#00296d" opacity="0.5"/>
    <path id="Path_5640" data-name="Path 5640" d="M725.56,174.572,715.772,215.1a86.818,86.818,0,0,1,6.544,16.028c-.008-.008-.008-.015-.016-.023-6.619-10.685-12.219-13.854-12.219-13.854,4.415-5.3,7.819-44,7.819-44s13.839-16.262,12.509-33.278a54.491,54.491,0,0,0-4.362-17.981c2.249,1.14,4.506,3.42,6.315,7.645C736.617,139.584,730.644,167.679,725.56,174.572Z" transform="translate(-22.95 -13.788)" fill="#00296d" opacity="0.5"/>
    <g id="Group_6659" data-name="Group 6659" transform="translate(640.916 107.213)">
      <path id="Path_5641" data-name="Path 5641" d="M654.8,287.867c8.349-11.616,12.341-34.484,10.164-53s4.719-23.145,10.526-30.448S694.367,169.533,694.367,163s16.334-22.505,12.7-40.654c0,0,10.429-6.461,16.227,7.1,4.253,9.947-1.718,38.036-6.8,44.933l-9.789,40.527s10.447,18.014,12.408,48.18c1.252,19.271-7.676,40.734-7.676,40.734" transform="translate(-654.802 -120.807)" fill="none" stroke="#263238" stroke-linecap="round" stroke-linejoin="round" stroke-width="1"/>
      <path id="Path_5642" data-name="Path 5642" d="M693.368,358.159s10.976,6.76,17.379,17.444" transform="translate(-661.126 -159.726)" fill="none" stroke="#263238" stroke-linecap="round" stroke-linejoin="round" stroke-width="1"/>
      <path id="Path_5643" data-name="Path 5643" d="M721.63,366.484s-9.456,1.344-18-8.874c-5.478-6.55-22.106-9.51-25.935-26.633" transform="translate(-658.556 -155.269)" fill="none" stroke="#263238" stroke-linecap="round" stroke-linejoin="round" stroke-width="1"/>
    </g>
    <path id="Path_5644" data-name="Path 5644" d="M883.178,394.814c-24.2-11.577-9.542-20.855-42.842-35.227s-33.638-26.65-29.62-54.9.825-58.273,10.519-60.823-7.581-41.5,3.709-55.272l55.548,108.048Z" transform="translate(-39.164 -24.709)" fill="rgba(0,0,0,0.7)" opacity="0.2"/>
    <path id="Path_5645" data-name="Path 5645" d="M975.762,392.617c-1.14-3.252-2.295-6.8-3.184-10.016a48.141,48.141,0,0,0-4.187-11.407c-.334-.624-.7-1.277-1.1-1.976a69.714,69.714,0,0,1-7.181-16.354c-1.216-4.576-.023-15.838,1.139-26.735.821-7.843,1.6-15.244,1.375-19.439l-.068-1.49c-.57-10.973-1.756-33.817-4.218-40.14-2.378-6.087-4.606-7-8.664-8.625-.418-.182-.851-.349-1.314-.547-1.52-.639-4.112-1.976-7.1-3.519-6.733-3.488-15.108-7.827-19.364-8.4a37.721,37.721,0,0,0-11.931.554c-5.244-4.027-14.165-9.211-16.818-9.309-2.181-.106-6.923,1.254-9.218,1.968-.532.167-.942.3-1.147.365a34.184,34.184,0,0,0-4.56-2.995c-.115-.053-.221-.1-.312-.136-2.949-1.216-7.41-1.262-9.842-1.193-.737.03-1.307.075-1.573.1-4.582-7.06-9.1-14.09-11.065-17.175-4.1-6.489-16.78-33.186-16.909-33.468a.24.24,0,0,0-.167-.136.382.382,0,0,0-.115-.038c-.987-.288-8.252-2.135-11.171,4.909-3.192,7.661,1.368,24.493,5.814,30.6,2.143,2.948,7.979,14.947,13.915,27.373-1.527,1.413-13.694,12.66-19.607,14.758-4.841,1.71-3.709,26.522-2.8,46.448.343,7.356.631,13.687.548,17.486-.167,7.356,13.215,17.494,26.188,27.29,11.726,8.876,23.847,18.048,25.268,24.713a12.752,12.752,0,0,0,2.85,5.107c2.234,2.842,5.106,6.193,6.33,12.554.357,1.9,3.419,4.393,5.82,8.466h87.9C978.566,400.308,977.184,396.7,975.762,392.617ZM853.981,260.44c4.255,8.914,6.885,14.248,7.508,14.811s.6,3.419.578,6.163a51.011,51.011,0,0,0,.251,7.219c-1.033.912-7.576,6.871-8.9,11.689l-5.563-6.551-1.405-20.534C847.293,272.364,853.016,266.322,853.981,260.44Z" transform="translate(-41.562 -23.639)" fill="#fff"/>
    <path id="Path_5646" data-name="Path 5646" d="M962.173,328.129c2.064,19.27,2.094,29.719,4.409,35.3,3.908,9.416,9.67,11.322,9.67,11.322a58.265,58.265,0,0,1-4.536-11.465c-1.215-4.571-.022-15.834,1.138-26.733.821-7.84,1.6-15.247,1.383-19.444l-.074-1.489c-.569-10.974-1.752-33.814-4.217-40.137-2.374-6.089-4.6-7-8.659-8.629-.421-.18-.857-.347-1.318-.544-1.522-.635-4.108-1.973-7.1-3.519-6.734-3.485-15.11-7.827-19.361-8.4a37.711,37.711,0,0,0-11.932.552c-5.245-4.025-14.165-9.207-16.823-9.311-2.177-.1-8.064,1.613-10.36,2.333,10.011,8.189,24.481,18.37,24.481,18.37,11.429,2.272,9.965,7.236,14.584,10.009,4.184,2.511,8.185-4.833,11.677-5.48,4.61-.854,9.854,4.037,9.62,9.935C954.109,297.142,960.4,311.59,962.173,328.129Z" transform="translate(-53.172 -34.06)" fill="#00296d" opacity="0.5"/>
    <path id="Path_5647" data-name="Path 5647" d="M901.52,268.019s-9.058-7.508-13.4-10.053-5.011-11.158-1.6-13.256a.9.9,0,0,1,.421-.13c-.109-.052-.217-.1-.312-.141-2.949-1.217-7.4-1.261-9.838-1.189,5.051,9.341,9.019,16.507,10.1,18.075C890.546,266.6,901.52,268.019,901.52,268.019Z" transform="translate(-50.286 -33.667)" fill="#92e3a9" opacity="0.4"/>
    <path id="Path_5648" data-name="Path 5648" d="M879.059,375c.38-2-2.91-7.85-4.354-10.221-3.291-5.419-41.44-39.13-35.907-48.128,5.509-9.021,10.571-2.333,14.066-1.756,2.516.418,9.4-3.685,9.363-4.027-.783-6.931,5.616-11.438,5.616-11.438s-.593-27.586-2.06-27.115S846.7,230.886,846.7,230.886s-18.6-24.744-17.554-36.288c1.048-11.528,9.112-11.786,9.112-11.786l-.016-.312c-.987-.288-8.252-2.135-11.171,4.909-3.192,7.661,1.368,24.493,5.814,30.6,2.143,2.948,7.979,14.947,13.915,27.373-1.527,1.413-13.694,12.66-19.607,14.758-4.841,1.71-3.709,26.522-2.8,46.448.343,7.356.631,13.687.548,17.486-.167,7.356,13.215,17.494,26.188,27.29,11.726,8.876,23.847,18.048,25.268,24.713a12.752,12.752,0,0,0,2.85,5.107A33.106,33.106,0,0,1,879.059,375ZM853.981,260.44c4.255,8.914,6.885,14.248,7.508,14.811s.6,3.419.578,6.163a51.011,51.011,0,0,0,.251,7.219c-1.033.912-7.576,6.871-8.9,11.689l-5.563-6.551-1.405-20.534C847.293,272.364,853.016,266.322,853.981,260.44Z" transform="translate(-41.562 -23.639)" fill="#00296d" opacity="0.5"/>
    <g id="Group_6660" data-name="Group 6660" transform="translate(782.332 158.716)">
      <path id="Path_5649" data-name="Path 5649" d="M888.1,257.939a19.007,19.007,0,0,1-9.4-6.585c-3.816-5.117-18.824-28.42-22.983-35s-16.927-33.486-16.927-33.486-7.859-2.631-10.918,4.712S829,211.5,833.657,217.893s26.8,55.606,28.561,57.2-.879,14.709,2.641,17.884" transform="translate(-824.425 -182.412)" fill="none" stroke="#263238" stroke-linecap="round" stroke-linejoin="round" stroke-width="1"/>
      <path id="Path_5650" data-name="Path 5650" d="M867.064,303.916s-8.111,7.064-9.063,12.219l-6.019-7.082-1.421-20.765s7.261-7.272,7.66-13.748" transform="translate(-828.316 -197.518)" fill="none" stroke="#263238" stroke-linecap="round" stroke-linejoin="round" stroke-width="1"/>
      <path id="Path_5651" data-name="Path 5651" d="M847.225,257.886s-13.467,12.705-19.871,14.974-1.737,49.875-2.055,63.665,48.453,37.8,51.445,51.917c1.189,5.611,6.1,6.758,9.107,17.517" transform="translate(-823.953 -194.787)" fill="none" stroke="#263238" stroke-linecap="round" stroke-linejoin="round" stroke-width="1"/>
      <path id="Path_5652" data-name="Path 5652" d="M874.72,243.712s7.329-.659,11.459,1.056S907.09,260.9,911.125,263.65s10.133,3.793,11.29,6.758" transform="translate(-832.278 -192.443)" fill="none" stroke="#263238" stroke-linecap="round" stroke-linejoin="round" stroke-width="1"/>
      <path id="Path_5653" data-name="Path 5653" d="M894.331,248.345s7.548-2.491,10.4-2.366,13.694,6.525,18.544,10.784a41.277,41.277,0,0,0,12.635,7.677" transform="translate(-835.493 -192.834)" fill="none" stroke="#263238" stroke-linecap="round" stroke-linejoin="round" stroke-width="1"/>
      <path id="Path_5654" data-name="Path 5654" d="M926.833,256.986a36.867,36.867,0,0,1,11.96-.575c6.119.824,21.488,9.864,26.383,11.9s7.243,2.414,9.812,9,3.756,31.638,4.274,41.533-4.637,38.251-2.513,46.229,5.978,14.126,8.311,18.4" transform="translate(-840.823 -194.503)" fill="none" stroke="#263238" stroke-linecap="round" stroke-linejoin="round" stroke-width="1"/>
      <path id="Path_5655" data-name="Path 5655" d="M850.006,289.9s-1.219-4.877-2.829-5.5" transform="translate(-827.761 -199.135)" fill="none" stroke="#263238" stroke-linecap="round" stroke-linejoin="round" stroke-width="1"/>
      <path id="Path_5656" data-name="Path 5656" d="M852.261,315.822a62.24,62.24,0,0,0,2.283,8.405c1.2,2.97-.67,7.261-.67,7.261" transform="translate(-828.595 -204.287)" fill="none" stroke="#263238" stroke-linecap="round" stroke-linejoin="round" stroke-width="1"/>
      <path id="Path_5657" data-name="Path 5657" d="M859.46,324.293c-.2,4.747,4.529,10.3,5.674,9.513" transform="translate(-829.774 -205.676)" fill="none" stroke="#263238" stroke-linecap="round" stroke-linejoin="round" stroke-width="1"/>
      <path id="Path_5658" data-name="Path 5658" d="M888.231,288.288s5.07-8.208,9.939-8.609,10.481,6.5,13.488,5.857,6.777-5.065,11.825-5.874,7.414,1.62,11.423,1.821,4.41-5.15,9.221-5.882,6.413,1.708,9.62,2.292,4.014-1.908,6.614-3.352" transform="translate(-834.493 -197.518)" fill="none" stroke="#263238" stroke-linecap="round" stroke-linejoin="round" stroke-width="1"/>
    </g>
  </g>
</svg>
